<svg version="1.1" viewBox="0.0 0.0 1814.0 378.0" fill="none" stroke="none" stroke-linecap="square" stroke-miterlimit="10" xmlns:xlink="http://www.w3.org/1999/xlink" xmlns="http://www.w3.org/2000/svg"><clipPath id="p.0"><path d="m0 0l1814.0 0l0 378.0l-1814.0 0l0 -378.0z" clip-rule="nonzero"/></clipPath><g clip-path="url(#p.0)"><path fill="#000000" fill-opacity="0.0" d="m0 0l1814.0 0l0 378.0l-1814.0 0z" fill-rule="evenodd"/><path fill="#a4c2f4" d="m220.36504 49.183704l-59.582993 17.888798l-103.59811 272.00095l59.582993 -17.888794z" fill-rule="evenodd"/><path stroke="#a4c2f4" stroke-width="16.0" stroke-linejoin="round" stroke-linecap="butt" d="m220.36504 49.183704l-59.582993 17.888798l-103.59811 272.00095l59.582993 -17.888794z" fill-rule="evenodd"/><path fill="#a4c2f4" d="m301.8875 215.33075l-119.20929 35.77359l-22.459991 58.966553l119.20929 -35.77359z" fill-rule="evenodd"/><path stroke="#a4c2f4" stroke-width="16.0" stroke-linejoin="round" stroke-linecap="butt" d="m301.8875 215.33075l-119.20929 35.77359l-22.459991 58.966553l119.20929 -35.77359z" fill-rule="evenodd"/><path fill="#000000" fill-opacity="0.0" d="m357.50394 73.19948l1436.504 0l0 273.85828l-1436.504 0z" fill-rule="evenodd"/><path fill="#666666" d="m385.70706 129.31384l-12.421875 -2.09375l0 -10.0l51.625 0l0 10.0l-15.5 2.09375l0 96.3125l34.53125 -1.453125l10.15625 -30.171875l13.078125 1.78125l-5.0 41.296875l-89.21875 0l0 -9.671875l12.75 -1.625l0 -96.46875zm89.20856 82.59375q0 -14.671875 14.765625 -22.09375q14.765625 -7.421875 38.15628 -7.578125l0 -3.71875q0 -6.609375 -1.375 -10.3125q-1.375 -3.71875 -5.015625 -5.578125q-3.625 -1.859375 -10.5469055 -1.859375q-7.90625 0 -14.203125 2.015625q-6.296875 2.015625 -13.0625 5.25l-5.0 -10.328125q2.40625 -2.09375 8.125 -5.0q5.734375 -2.90625 13.640625 -5.078125q7.90625 -2.1875 16.296906 -2.1875q12.421875 0 19.4375 3.234375q7.03125 3.21875 10.09375 10.328125q3.0625 7.09375 3.0625 19.03125l0 49.375l8.703125 0l0 9.03125q-3.21875 0.796875 -9.1875 1.609375q-5.96875 0.8125 -10.484375 0.8125q-5.484375 0 -7.34375 -1.625q-1.859375 -1.609375 -1.859375 -6.609375l0 -4.359375q-4.359375 4.84375 -11.296875 8.71875q-6.9219055 3.875 -15.6406555 3.875q-7.421875 0 -13.640625 -3.140625q-6.203125 -3.15625 -9.921875 -9.203125q-3.703125 -6.046875 -3.703125 -14.609375zm37.59378 13.5625q3.390625 0 7.734375 -2.015625q4.359375 -2.03125 7.59375 -4.921875l0 -26.46875q-14.53125 0 -21.71878 4.921875q-7.171875 4.921875 -7.171875 12.671875q0 7.734375 3.625 11.78125q3.640625 4.03125 9.9375305 4.03125zm144.70233 -36.140625q0 13.546875 -5.5625 24.84375q-5.5625 11.296875 -16.296875 18.0q-10.71875 6.6875 -25.562561 6.6875q-3.234375 0 -6.703125 -0.578125q-3.46875 -0.5625 -5.5625 -1.359375l0.484375 13.390625l0 14.671875l15.0 1.9375l0 9.203125l-47.90625 0l0 -9.203125l10.484375 -1.9375l0 -102.28125l-10.484375 -2.90625l0 -11.125l26.609375 -3.390625l0.328125 0l4.03125 3.234375l0 9.03125q4.03125 -5.0 10.96875 -8.703125q6.937561 -3.71875 15.171936 -3.71875q15.328125 0 25.15625 10.890625q9.84375 10.890625 9.84375 33.3125zm-43.390625 -30.8125q-4.843811 0 -9.203186 2.09375q-4.34375 2.09375 -6.609375 4.671875l0 59.859375q1.125 1.609375 4.59375 2.75q3.46875 1.125 7.671875 1.125q10.484436 0 16.687561 -9.109375q6.21875 -9.125 6.21875 -28.640625q0 -16.453125 -5.328125 -24.59375q-5.328125 -8.15625 -14.03125 -8.15625zm65.97455 -39.375l-11.9375 -2.09375l0 -8.703125l29.859375 -3.546875l0.3125 0l4.359375 3.0625l0 118.25l11.78125 1.296875l0 9.671875l-45.65625 0l0 -9.671875l11.28125 -1.453125l0 -106.8125zm43.726562 92.765625q0 -14.671875 14.765625 -22.09375q14.765625 -7.421875 38.15625 -7.578125l0 -3.71875q0 -6.609375 -1.375 -10.3125q-1.375 -3.71875 -5.015625 -5.578125q-3.625 -1.859375 -10.546875 -1.859375q-7.90625 0 -14.203125 2.015625q-6.296875 2.015625 -13.0625 5.25l-5.0 -10.328125q2.40625 -2.09375 8.125 -5.0q5.734375 -2.90625 13.640625 -5.078125q7.90625 -2.1875 16.296875 -2.1875q12.421875 0 19.4375 3.234375q7.03125 3.21875 10.09375 10.328125q3.0625 7.09375 3.0625 19.03125l0 49.375l8.703125 0l0 9.03125q-3.21875 0.796875 -9.1875 1.609375q-5.96875 0.8125 -10.484375 0.8125q-5.484375 0 -7.34375 -1.625q-1.859375 -1.609375 -1.859375 -6.609375l0 -4.359375q-4.359375 4.84375 -11.296875 8.71875q-6.921875 3.875 -15.640625 3.875q-7.421875 0 -13.640625 -3.140625q-6.203125 -3.15625 -9.921875 -9.203125q-3.703125 -6.046875 -3.703125 -14.609375zm37.59375 13.5625q3.390625 0 7.734375 -2.015625q4.359375 -2.03125 7.59375 -4.921875l0 -26.46875q-14.53125 0 -21.71875 4.921875q-7.171875 4.921875 -7.171875 12.671875q0 7.734375 3.625 11.78125q3.640625 4.03125 9.9375 4.03125zm53.38983 -32.75q0 -13.875 5.5625 -24.6875q5.578125 -10.8125 15.984375 -16.859375q10.40625 -6.046875 24.28125 -6.046875q6.453125 0 11.125 0.96875q4.6875 0.96875 10.484375 2.578125l4.6875 1.296875l-0.96875 27.578125l-14.046875 0l-4.03125 -17.75q-0.96875 -4.1875 -9.515625 -4.1875q-9.03125 0 -14.125 7.90625q-5.078125 7.90625 -5.234375 24.6875q0 17.734375 6.125 27.171875q6.140625 9.4375 16.296875 9.4375q12.265625 0 22.59375 -6.609375l3.703125 8.390625q-4.1875 4.515625 -12.828125 8.390625q-8.625 3.875 -18.625 3.875q-20.65625 0 -31.0625 -12.75q-10.40625 -12.75 -10.40625 -33.390625zm126.49487 46.140625q-21.296875 0 -31.703125 -12.5q-10.40625 -12.515625 -10.40625 -34.125q0 -14.53125 5.390625 -25.171875q5.40625 -10.640625 15.25 -16.28125q9.84375 -5.65625 22.75 -5.65625q16.140625 0 24.84375 8.46875q8.71875 8.46875 9.03125 24.109375q0 10.65625 -1.28125 15.8125l-52.4375 0q0.640625 14.6875 6.9375 22.84375q6.296875 8.140625 17.90625 8.140625q6.296875 0 12.984375 -2.09375q6.703125 -2.109375 10.578125 -5.015625l4.03125 8.875q-4.359375 4.6875 -14.125 8.640625q-9.75 3.953125 -19.75 3.953125zm12.578125 -55.015625q0.328125 -4.515625 0.328125 -6.9375q0 -21.453125 -14.359375 -21.453125q-7.90625 0 -12.265625 6.296875q-4.359375 6.28125 -4.84375 22.09375l31.140625 0zm72.762024 43.5625l12.734375 -1.625l0 -96.46875l-12.09375 -2.265625l0 -9.828125l23.390625 0q3.0625 0 6.765625 -0.15625q3.71875 -0.171875 5.65625 -0.328125q8.390625 -0.65625 13.875 -0.65625q16.625 0 26.625 3.390625q10.0 3.390625 14.515625 10.328125q4.515625 6.9375 4.515625 18.234375q0 11.125 -5.96875 20.640625q-5.96875 9.515625 -17.265625 13.078125q6.453125 2.734375 11.453125 10.0q5.0 7.25 10.65625 18.875q4.03125 7.90625 6.203125 11.375q2.1875 3.46875 4.28125 3.953125l5.328125 1.609375l0 9.515625l-27.4375 0q-2.578125 0 -5.40625 -5.234375q-2.8125 -5.25 -7.328125 -16.546875q-5.328125 -13.234375 -9.203125 -20.640625q-3.875 -7.421875 -8.21875 -9.203125l-16.625 0l0 40.328125l14.84375 1.625l0 9.671875l-51.296875 0l0 -9.671875zm51.296875 -51.796875q9.203125 0 14.359375 -6.609375q5.15625 -6.609375 5.15625 -19.84375q0 -11.78125 -5.078125 -17.421875q-5.078125 -5.65625 -17.5 -5.65625q-4.515625 0 -7.671875 0.40625q-3.140625 0.40625 -4.109375 0.40625l0 48.40625q1.9375 0.3125 9.359375 0.3125l5.484375 0zm65.9895 16.78125q0 -15.171875 6.046875 -25.8125q6.046875 -10.640625 16.203125 -16.046875q10.171875 -5.40625 22.109375 -5.40625q20.328125 0 31.375 12.5q11.046875 12.5 11.046875 33.953125q0 15.328125 -6.046875 26.0625q-6.046875 10.71875 -16.140625 15.96875q-10.078125 5.25 -22.171875 5.25q-20.171875 0 -31.296875 -12.5q-11.125 -12.515625 -11.125 -33.96875zm43.71875 35.96875q18.21875 0 18.21875 -35.15625q0 -18.390625 -4.359375 -27.984375q-4.34375 -9.609375 -14.1875 -9.609375q-18.71875 0 -18.71875 35.171875q0 18.390625 4.59375 27.984375q4.609375 9.59375 14.453125 9.59375zm50.490967 -120.015625l29.515625 -3.546875l0.328125 0l4.515625 3.0625l0 47.59375q4.359375 -4.359375 10.734375 -7.34375q6.375 -2.984375 13.796875 -2.984375q15.484375 0 25.234375 10.890625q9.765625 10.890625 9.765625 33.3125q0 13.875 -5.8125 25.171875q-5.796875 11.28125 -16.6875 17.828125q-10.890625 6.53125 -25.25 6.53125q-12.75 0 -22.109375 -2.171875q-9.34375 -2.1875 -11.9375 -3.96875l0 -114.0625l-12.09375 -1.921875l0 -8.390625zm50.328125 50.96875q-4.828125 0 -9.109375 2.1875q-4.28125 2.171875 -6.859375 4.921875l0 58.875q0.96875 1.78125 4.515625 2.90625q3.546875 1.125 8.078125 1.125q10.3125 0 16.515625 -9.59375q6.21875 -9.59375 6.21875 -28.46875q0 -16.296875 -5.328125 -24.125q-5.3125 -7.828125 -14.03125 -7.828125zm56.638184 33.078125q0 -15.171875 6.046875 -25.8125q6.046875 -10.640625 16.203125 -16.046875q10.171875 -5.40625 22.109375 -5.40625q20.328125 0 31.375 12.5q11.046875 12.5 11.046875 33.953125q0 15.328125 -6.046875 26.0625q-6.046875 10.71875 -16.140625 15.96875q-10.078125 5.25 -22.171875 5.25q-20.171875 0 -31.296875 -12.5q-11.125 -12.515625 -11.125 -33.96875zm43.71875 35.96875q18.21875 0 18.21875 -35.15625q0 -18.390625 -4.359375 -27.984375q-4.34375 -9.609375 -14.1875 -9.609375q-18.71875 0 -18.71875 35.171875q0 18.390625 4.59375 27.984375q4.609375 9.59375 14.453125 9.59375zm84.85034 10.171875q-10.15625 0 -15.0 -4.671875q-4.84375 -4.6875 -4.84375 -14.84375l0 -59.21875l-10.484375 0l0 -8.390625q1.296875 -0.484375 4.671875 -1.6875q3.390625 -1.203125 5.171875 -2.015625q2.734375 -2.09375 4.671875 -7.265625q1.453125 -3.375 5.328125 -16.765625l12.90625 0l0.640625 23.703125l24.6875 0l0 12.421875l-24.515625 0l0 45.34375q0 9.03125 0.484375 12.75q0.484375 3.703125 2.09375 4.75q1.609375 1.046875 5.640625 1.046875q4.03125 0 8.390625 -0.890625q4.359375 -0.890625 7.265625 -2.171875l3.0625 9.03125q-4.515625 3.390625 -13.234375 6.140625q-8.703125 2.734375 -16.9375 2.734375zm57.91565 -105.828125q-5.796875 0 -9.1875 -3.390625q-3.390625 -3.390625 -3.390625 -8.71875q0 -6.125 3.875 -10.15625q3.875 -4.03125 10.328125 -4.03125q6.453125 0 9.828125 3.46875q3.390625 3.46875 3.390625 8.625q0 6.453125 -3.875 10.328125q-3.859375 3.875 -10.796875 3.875l-0.171875 0zm-8.546875 30.0l-11.453125 -3.0625l0 -10.8125l29.515625 -3.546875l0.328125 0l4.515625 3.234375l0 77.59375l10.8125 1.296875l0 9.671875l-45.015625 0l0 -9.671875l11.296875 -1.453125l0 -63.25zm43.230835 30.015625q0 -13.875 5.5625 -24.6875q5.578125 -10.8125 15.984375 -16.859375q10.40625 -6.046875 24.28125 -6.046875q6.453125 0 11.125 0.96875q4.6875 0.96875 10.484375 2.578125l4.6875 1.296875l-0.96875 27.578125l-14.046875 0l-4.03125 -17.75q-0.96875 -4.1875 -9.515625 -4.1875q-9.03125 0 -14.125 7.90625q-5.078125 7.90625 -5.234375 24.6875q0 17.734375 6.125 27.171875q6.140625 9.4375 16.296875 9.4375q12.265625 0 22.59375 -6.609375l3.703125 8.390625q-4.1875 4.515625 -12.828125 8.390625q-8.625 3.875 -18.625 3.875q-20.65625 0 -31.0625 -12.75q-10.40625 -12.75 -10.40625 -33.390625zm103.74487 31.125q1.28125 1.9375 5.875 3.640625q4.609375 1.6875 9.28125 1.6875q7.59375 0 11.375 -3.140625q3.796875 -3.15625 3.796875 -8.3125q0 -5.328125 -4.6875 -8.625q-4.671875 -3.3125 -15.796875 -8.15625l-4.53125 -1.9375q-11.125 -4.671875 -16.609375 -11.28125q-5.484375 -6.625 -5.484375 -17.109375q0 -7.265625 4.34375 -12.984375q4.359375 -5.734375 12.265625 -8.953125q7.90625 -3.234375 18.234375 -3.234375q7.578125 0 12.984375 0.96875q5.40625 0.96875 11.375 2.59375q3.234375 1.125 4.84375 1.28125l0 21.140625l-12.75 0l-3.703125 -12.265625q-0.96875 -1.609375 -4.359375 -2.890625q-3.390625 -1.296875 -7.75 -1.296875q-6.609375 0 -10.5625 2.828125q-3.953125 2.8125 -3.953125 7.8125q0 4.515625 2.734375 7.5q2.75 2.984375 5.96875 4.609375q3.234375 1.609375 11.953125 5.3125q8.703125 3.71875 14.421875 7.109375q5.734375 3.375 9.53125 8.78125q3.796875 5.40625 3.796875 13.15625q0 11.9375 -9.359375 19.359375q-9.359375 7.421875 -26.9375 7.421875q-8.234375 0 -14.765625 -1.453125q-6.53125 -1.453125 -15.09375 -3.875l-3.546875 -1.125l0 -21.296875l13.390625 0l3.71875 12.734375z" fill-rule="nonzero"/></g></svg>